<svg width="228" height="237" viewBox="0 0 228 237" fill="none" xmlns="http://www.w3.org/2000/svg">
<path fill-rule="evenodd" clip-rule="evenodd" d="M180.352 0L102.187 64.8507L68.3212 29.8706C56.114 17.49 51.3886 12.9701 38.5907 9.82587C24.8083 7.46766 0 14.5423 0 42.8408V216.955C0 227.7 8.6388 236.41 19.2953 236.41C29.9519 236.41 38.5907 227.7 38.5907 216.955V55.0964L95.3474 111.745C99.3926 115.783 105.993 115.615 109.827 111.377L158.497 57.5796C163.549 37.2796 166.557 16.6377 180.352 0ZM127.585 173.328C127.585 182.011 120.533 189.05 111.834 189.05C103.135 189.05 96.0829 182.011 96.0829 173.328C96.0829 164.646 103.135 157.607 111.834 157.607C120.533 157.607 127.585 164.646 127.585 173.328ZM228 27.9055C228 27.9482 228 27.9908 228 28.0335L228 217.845H227.994C227.735 228.469 219.198 237 208.705 237C198.212 237 189.674 228.469 189.415 217.845H189.409V73.5183L158.943 186.825L158.862 186.806C152.632 205.861 133.845 219.706 111.637 219.706C84.3435 219.706 62.2176 198.794 62.2176 172.998C62.2176 147.201 84.3435 126.289 111.637 126.289C126.671 126.289 140.137 132.634 149.201 142.645L180.383 26.6768C185.275 11.2015 191.601 3.93035 204.176 3.93035C217.334 3.93035 228 14.6644 228 27.9055ZM139.704 177.964L138.797 181.336C135.081 192.157 124.326 199.981 111.637 199.981C95.8699 199.981 83.0881 187.9 83.0881 172.998C83.0881 158.095 95.8699 146.015 111.637 146.015C127.405 146.015 140.187 158.095 140.187 172.998C140.187 174.695 140.021 176.354 139.704 177.964Z" fill="url(#paint0_linear_126_219)"/>
<defs>
<linearGradient id="paint0_linear_126_219" x1="233.119" y1="9.82587" x2="114.546" y2="229.328" gradientUnits="userSpaceOnUse">
<stop stop-color="#EE8031"/>
<stop offset="1" stop-color="#D3356F"/>
</linearGradient>
</defs>
</svg>
