<svg width="368" height="377" viewBox="0 0 368 377" fill="none" xmlns="http://www.w3.org/2000/svg">
<g filter="url(#filter0_d_126_219)">
<path fill-rule="evenodd" clip-rule="evenodd" d="M250.352 66L172.187 130.851L138.321 95.8706C126.114 83.49 121.389 78.9701 108.591 75.8259C94.8083 73.4677 70 80.5423 70 108.841V282.955C70 293.7 78.6388 302.41 89.2953 302.41C99.9519 302.41 108.591 293.7 108.591 282.955V121.096L165.347 177.745C169.393 181.783 175.993 181.615 179.827 177.377L228.497 123.58C233.549 103.28 236.557 82.6377 250.352 66ZM197.585 239.328C197.585 248.011 190.533 255.05 181.834 255.05C173.135 255.05 166.083 248.011 166.083 239.328C166.083 230.646 173.135 223.607 181.834 223.607C190.533 223.607 197.585 230.646 197.585 239.328ZM298 93.9055C298 93.9482 298 93.9908 298 94.0335L298 283.845H297.994C297.735 294.469 289.198 303 278.705 303C268.212 303 259.674 294.469 259.415 283.845H259.409V139.518L228.943 252.825L228.862 252.806C222.632 271.861 203.845 285.706 181.637 285.706C154.343 285.706 132.218 264.794 132.218 238.998C132.218 213.201 154.343 192.289 181.637 192.289C196.671 192.289 210.137 198.634 219.201 208.645L250.383 92.6768C255.275 77.2015 261.601 69.9303 274.176 69.9303C287.334 69.9303 298 80.6644 298 93.9055ZM209.704 243.964L208.797 247.336C205.081 258.157 194.326 265.981 181.637 265.981C165.87 265.981 153.088 253.9 153.088 238.998C153.088 224.095 165.87 212.015 181.637 212.015C197.405 212.015 210.187 224.095 210.187 238.998C210.187 240.695 210.021 242.354 209.704 243.964Z" fill="url(#paint0_linear_126_219)"/>
</g>
<defs>
<filter id="filter0_d_126_219" x="0" y="0" width="368" height="377" filterUnits="userSpaceOnUse" color-interpolation-filters="sRGB">
<feFlood flood-opacity="0" result="BackgroundImageFix"/>
<feColorMatrix in="SourceAlpha" type="matrix" values="0 0 0 0 0 0 0 0 0 0 0 0 0 0 0 0 0 0 127 0" result="hardAlpha"/>
<feOffset dy="4"/>
<feGaussianBlur stdDeviation="35"/>
<feComposite in2="hardAlpha" operator="out"/>
<feColorMatrix type="matrix" values="0 0 0 0 0 0 0 0 0 0 0 0 0 0 0 0 0 0 0.4 0"/>
<feBlend mode="normal" in2="BackgroundImageFix" result="effect1_dropShadow_126_219"/>
<feBlend mode="normal" in="SourceGraphic" in2="effect1_dropShadow_126_219" result="shape"/>
</filter>
<linearGradient id="paint0_linear_126_219" x1="303.119" y1="75.8259" x2="184.546" y2="295.328" gradientUnits="userSpaceOnUse">
<stop stop-color="#EE8031"/>
<stop offset="1" stop-color="#D3356F"/>
</linearGradient>
</defs>
</svg>